<svg width="300" height="300" viewBox="0 0 300 300" fill="none" xmlns="http://www.w3.org/2000/svg">
<circle cx="150" cy="150" r="150" fill="black"/>
<path d="M68.77 176V165.934H77.17C77.6367 165.934 78.0333 166.102 78.36 166.438C78.6867 166.765 78.85 167.157 78.85 167.614V170.568C78.85 171.025 78.6867 171.422 78.36 171.758C78.0333 172.085 77.6367 172.248 77.17 172.248H75.63L78.794 175.986V176H77.296L74.146 172.248L69.904 172.234V176H68.77ZM70.45 171.1H77.17C77.3193 171.1 77.4453 171.049 77.548 170.946C77.6507 170.843 77.702 170.717 77.702 170.568V167.614C77.702 167.465 77.6507 167.339 77.548 167.236C77.4453 167.124 77.3193 167.068 77.17 167.068H70.45C70.3007 167.068 70.17 167.124 70.058 167.236C69.9553 167.339 69.904 167.465 69.904 167.614V170.568C69.904 170.717 69.9553 170.843 70.058 170.946C70.17 171.049 70.3007 171.1 70.45 171.1ZM94.4347 176V165.92H103.633V167.054H95.5687V170.386H102.051V171.534H95.5687V174.866H103.633V176H94.4347ZM119.195 176V165.934H127.595C128.062 165.934 128.459 166.102 128.785 166.438C129.112 166.765 129.275 167.157 129.275 167.614V170.568C129.275 171.025 129.112 171.422 128.785 171.758C128.459 172.085 128.062 172.248 127.595 172.248H120.329V176H119.195ZM120.875 171.1H127.595C127.745 171.1 127.871 171.049 127.973 170.946C128.085 170.843 128.141 170.717 128.141 170.568V167.614C128.141 167.465 128.085 167.339 127.973 167.236C127.871 167.124 127.745 167.068 127.595 167.068H120.875C120.726 167.068 120.595 167.124 120.483 167.236C120.381 167.339 120.329 167.465 120.329 167.614V170.568C120.329 170.717 120.381 170.843 120.483 170.946C120.595 171.049 120.726 171.1 120.875 171.1ZM145.992 176C145.525 176 145.128 175.837 144.802 175.51C144.475 175.183 144.312 174.787 144.312 174.32V167.6C144.312 167.133 144.475 166.737 144.802 166.41C145.128 166.083 145.525 165.92 145.992 165.92H152.712C153.178 165.92 153.575 166.083 153.902 166.41C154.228 166.737 154.392 167.133 154.392 167.6V174.32C154.392 174.787 154.228 175.183 153.902 175.51C153.575 175.837 153.178 176 152.712 176H145.992ZM145.992 174.866H152.712C152.861 174.866 152.987 174.815 153.09 174.712C153.202 174.6 153.258 174.469 153.258 174.32V167.6C153.258 167.451 153.202 167.325 153.09 167.222C152.987 167.11 152.861 167.054 152.712 167.054H145.992C145.842 167.054 145.712 167.11 145.6 167.222C145.497 167.325 145.446 167.451 145.446 167.6V174.32C145.446 174.469 145.497 174.6 145.6 174.712C145.712 174.815 145.842 174.866 145.992 174.866ZM169.989 176V165.934H178.389C178.856 165.934 179.253 166.102 179.579 166.438C179.906 166.765 180.069 167.157 180.069 167.614V170.568C180.069 171.025 179.906 171.422 179.579 171.758C179.253 172.085 178.856 172.248 178.389 172.248H176.849L180.013 175.986V176H178.515L175.365 172.248L171.123 172.234V176H169.989ZM171.669 171.1H178.389C178.539 171.1 178.665 171.049 178.767 170.946C178.87 170.843 178.921 170.717 178.921 170.568V167.614C178.921 167.465 178.87 167.339 178.767 167.236C178.665 167.124 178.539 167.068 178.389 167.068H171.669C171.52 167.068 171.389 167.124 171.277 167.236C171.175 167.339 171.123 167.465 171.123 167.614V170.568C171.123 170.717 171.175 170.843 171.277 170.946C171.389 171.049 171.52 171.1 171.669 171.1ZM199.602 176V167.054H195.122V165.92H205.202V167.054H200.736V176H199.602ZM221.929 176C221.463 176 221.066 175.837 220.739 175.51C220.413 175.183 220.249 174.787 220.249 174.32V173.928H221.383V174.32C221.383 174.469 221.435 174.6 221.537 174.712C221.649 174.815 221.78 174.866 221.929 174.866H228.649C228.799 174.866 228.925 174.815 229.027 174.712C229.139 174.6 229.195 174.469 229.195 174.32V172.066C229.195 171.917 229.139 171.791 229.027 171.688C228.925 171.585 228.799 171.534 228.649 171.534H221.929C221.463 171.534 221.066 171.371 220.739 171.044C220.413 170.708 220.249 170.311 220.249 169.854V167.6C220.249 167.133 220.413 166.737 220.739 166.41C221.066 166.083 221.463 165.92 221.929 165.92H228.649C229.116 165.92 229.513 166.083 229.839 166.41C230.166 166.737 230.329 167.133 230.329 167.6V167.992H229.195V167.6C229.195 167.451 229.139 167.325 229.027 167.222C228.925 167.11 228.799 167.054 228.649 167.054H221.929C221.78 167.054 221.649 167.11 221.537 167.222C221.435 167.325 221.383 167.451 221.383 167.6V169.854C221.383 170.003 221.435 170.129 221.537 170.232C221.649 170.335 221.78 170.386 221.929 170.386H228.649C229.116 170.386 229.513 170.554 229.839 170.89C230.166 171.217 230.329 171.609 230.329 172.066V174.32C230.329 174.787 230.166 175.183 229.839 175.51C229.513 175.837 229.116 176 228.649 176H221.929Z" fill="white"/>
<path d="M32.392 133V115.72H46.528C47.392 115.72 48.128 116.024 48.736 116.632C49.36 117.24 49.672 117.976 49.672 118.84V129.88C49.672 130.744 49.36 131.48 48.736 132.088C48.128 132.696 47.392 133 46.528 133H32.392ZM35.872 130.408H46.168C46.52 130.408 46.752 130.352 46.864 130.24C46.992 130.112 47.056 129.872 47.056 129.52V119.2C47.056 118.848 46.992 118.616 46.864 118.504C46.752 118.376 46.52 118.312 46.168 118.312H35.872C35.52 118.312 35.28 118.376 35.152 118.504C35.04 118.616 34.984 118.848 34.984 119.2V129.52C34.984 129.872 35.04 130.112 35.152 130.24C35.28 130.352 35.52 130.408 35.872 130.408ZM56.1276 133V115.72H71.9676V118.312H58.7436V123.04H69.3756V125.656H58.7436V130.408H71.9676V133H56.1276ZM81.2946 133C80.4306 133 79.6946 132.696 79.0866 132.088C78.4786 131.48 78.1746 130.744 78.1746 129.88V118.84C78.1746 117.976 78.4786 117.24 79.0866 116.632C79.6946 116.024 80.4306 115.72 81.2946 115.72H95.4066V118.312H81.6546C81.3026 118.312 81.0626 118.376 80.9346 118.504C80.8226 118.616 80.7666 118.848 80.7666 119.2V129.52C80.7666 129.872 80.8226 130.112 80.9346 130.24C81.0626 130.352 81.3026 130.408 81.6546 130.408H95.4066V133H81.2946ZM101.653 133V115.696H104.245V130.408H118.933V133H101.653ZM124.1 133V118.84C124.1 117.976 124.404 117.24 125.012 116.632C125.62 116.024 126.356 115.72 127.22 115.72H138.236C139.1 115.72 139.836 116.024 140.444 116.632C141.068 117.24 141.38 117.976 141.38 118.84V133H138.764V126.952H126.692V133H124.1ZM126.692 124.36H138.764V119.2C138.764 118.848 138.7 118.616 138.572 118.504C138.46 118.376 138.228 118.312 137.876 118.312H127.58C127.228 118.312 126.988 118.376 126.86 118.504C126.748 118.616 126.692 118.848 126.692 119.2V124.36ZM147.811 133V115.744H161.947C162.811 115.744 163.547 116.056 164.155 116.68C164.779 117.288 165.091 118.016 165.091 118.864V123.712C165.091 124.56 164.779 125.296 164.155 125.92C163.547 126.528 162.811 126.832 161.947 126.832H160.219L165.019 132.52V133H161.995L156.835 126.832H150.403V133H147.811ZM151.291 124.216H161.587C161.955 124.216 162.195 124.16 162.307 124.048C162.419 123.936 162.475 123.704 162.475 123.352V119.224C162.475 118.872 162.419 118.64 162.307 118.528C162.195 118.4 161.955 118.336 161.587 118.336H151.291C150.939 118.336 150.699 118.4 150.571 118.528C150.459 118.64 150.403 118.872 150.403 119.224V123.352C150.403 123.704 150.459 123.936 150.571 124.048C150.699 124.16 150.939 124.216 151.291 124.216ZM171.407 133V118.84C171.407 117.976 171.711 117.24 172.319 116.632C172.927 116.024 173.663 115.72 174.527 115.72H185.543C186.407 115.72 187.143 116.024 187.751 116.632C188.375 117.24 188.687 117.976 188.687 118.84V133H186.071V126.952H173.999V133H171.407ZM173.999 124.36H186.071V119.2C186.071 118.848 186.007 118.616 185.879 118.504C185.767 118.376 185.535 118.312 185.183 118.312H174.887C174.535 118.312 174.295 118.376 174.167 118.504C174.055 118.616 173.999 118.848 173.999 119.2V124.36ZM201.622 133V118.312H194.278V115.72H211.558V118.312H204.238V133H201.622ZM216.977 133V115.72H219.569V133H216.977ZM228.998 133C228.134 133 227.398 132.696 226.79 132.088C226.182 131.48 225.878 130.744 225.878 129.88V118.84C225.878 117.976 226.182 117.24 226.79 116.632C227.398 116.024 228.134 115.72 228.998 115.72H240.038C240.886 115.72 241.614 116.024 242.222 116.632C242.846 117.24 243.158 117.976 243.158 118.84V129.88C243.158 130.744 242.846 131.48 242.222 132.088C241.614 132.696 240.886 133 240.038 133H228.998ZM229.358 130.408H239.654C240.006 130.408 240.238 130.352 240.35 130.24C240.478 130.112 240.542 129.872 240.542 129.52V119.2C240.542 118.848 240.478 118.616 240.35 118.504C240.238 118.376 240.006 118.312 239.654 118.312H229.358C229.006 118.312 228.766 118.376 228.638 118.504C228.526 118.616 228.47 118.848 228.47 119.2V129.52C228.47 129.872 228.526 130.112 228.638 130.24C228.766 130.352 229.006 130.408 229.358 130.408ZM249.521 133V115.72H252.617L264.185 129.496V115.72H266.801V133H263.705L252.113 119.2V133H249.521Z" fill="white"/>
<line x1="31" y1="148.5" x2="269" y2="148.5" stroke="white" stroke-width="3"/>
</svg>
