<svg width="306" height="306" viewBox="0 0 306 306" fill="none" xmlns="http://www.w3.org/2000/svg">
<circle cx="153" cy="153" r="151.5" fill="white" stroke="black" stroke-width="3"/>
<path d="M48.99 185V172.058H59.592C60.24 172.058 60.792 172.292 61.248 172.76C61.716 173.216 61.95 173.762 61.95 174.398V178.034C61.95 178.67 61.716 179.222 61.248 179.69C60.792 180.146 60.24 180.374 59.592 180.374H58.296L61.896 184.64V185H59.628L55.758 180.374H50.934V185H48.99ZM51.6 178.412H59.322C59.598 178.412 59.778 178.37 59.862 178.286C59.946 178.202 59.988 178.028 59.988 177.764V174.668C59.988 174.404 59.946 174.23 59.862 174.146C59.778 174.05 59.598 174.002 59.322 174.002H51.6C51.336 174.002 51.156 174.05 51.06 174.146C50.976 174.23 50.934 174.404 50.934 174.668V177.764C50.934 178.028 50.976 178.202 51.06 178.286C51.156 178.37 51.336 178.412 51.6 178.412ZM81.9875 185V172.04H93.8675V173.984H83.9495V177.53H91.9235V179.492H83.9495V183.056H93.8675V185H81.9875ZM113.823 185V172.058H124.425C125.085 172.058 125.643 172.292 126.099 172.76C126.555 173.216 126.783 173.762 126.783 174.398V178.034C126.783 178.67 126.555 179.222 126.099 179.69C125.643 180.146 125.085 180.374 124.425 180.374L115.767 180.392V185H113.823ZM116.433 178.412H124.155C124.419 178.412 124.593 178.37 124.677 178.286C124.773 178.202 124.821 178.028 124.821 177.764V174.668C124.821 174.404 124.773 174.23 124.677 174.146C124.593 174.05 124.419 174.002 124.155 174.002H116.433C116.169 174.002 115.989 174.05 115.893 174.146C115.809 174.23 115.767 174.404 115.767 174.668V177.764C115.767 178.028 115.809 178.202 115.893 178.286C115.989 178.37 116.169 178.412 116.433 178.412ZM148.455 185C147.807 185 147.255 184.772 146.799 184.316C146.343 183.86 146.115 183.308 146.115 182.66V174.38C146.115 173.732 146.343 173.18 146.799 172.724C147.255 172.268 147.807 172.04 148.455 172.04H156.735C157.371 172.04 157.917 172.268 158.373 172.724C158.841 173.18 159.075 173.732 159.075 174.38V182.66C159.075 183.308 158.841 183.86 158.373 184.316C157.917 184.772 157.371 185 156.735 185H148.455ZM148.725 183.056H156.447C156.711 183.056 156.885 183.014 156.969 182.93C157.065 182.834 157.113 182.654 157.113 182.39V174.65C157.113 174.386 157.065 174.212 156.969 174.128C156.885 174.032 156.711 173.984 156.447 173.984H148.725C148.461 173.984 148.281 174.032 148.185 174.128C148.101 174.212 148.059 174.386 148.059 174.65V182.39C148.059 182.654 148.101 182.834 148.185 182.93C148.281 183.014 148.461 183.056 148.725 183.056ZM179.129 185V172.058H189.731C190.379 172.058 190.931 172.292 191.387 172.76C191.855 173.216 192.089 173.762 192.089 174.398V178.034C192.089 178.67 191.855 179.222 191.387 179.69C190.931 180.146 190.379 180.374 189.731 180.374H188.435L192.035 184.64V185H189.767L185.897 180.374H181.073V185H179.129ZM181.739 178.412H189.461C189.737 178.412 189.917 178.37 190.001 178.286C190.085 178.202 190.127 178.028 190.127 177.764V174.668C190.127 174.404 190.085 174.23 190.001 174.146C189.917 174.05 189.737 174.002 189.461 174.002H181.739C181.475 174.002 181.295 174.05 181.199 174.146C181.115 174.23 181.073 174.404 181.073 174.668V177.764C181.073 178.028 181.115 178.202 181.199 178.286C181.295 178.37 181.475 178.412 181.739 178.412ZM216.951 185V173.984H211.443V172.04H224.403V173.984H218.913V185H216.951ZM246.107 185C245.459 185 244.907 184.772 244.451 184.316C243.995 183.86 243.767 183.308 243.767 182.66V181.904H245.711V182.39C245.711 182.654 245.753 182.834 245.837 182.93C245.933 183.014 246.113 183.056 246.377 183.056H254.117C254.381 183.056 254.555 183.014 254.639 182.93C254.723 182.834 254.765 182.654 254.765 182.39V180.158C254.765 179.882 254.723 179.702 254.639 179.618C254.555 179.534 254.381 179.492 254.117 179.492H246.107C245.459 179.492 244.907 179.264 244.451 178.808C243.995 178.352 243.767 177.8 243.767 177.152V174.38C243.767 173.732 243.995 173.18 244.451 172.724C244.907 172.268 245.459 172.04 246.107 172.04H254.387C255.035 172.04 255.587 172.268 256.043 172.724C256.499 173.18 256.727 173.732 256.727 174.38V175.136H254.765V174.65C254.765 174.386 254.723 174.212 254.639 174.128C254.555 174.032 254.381 173.984 254.117 173.984H246.377C246.113 173.984 245.933 174.032 245.837 174.128C245.753 174.212 245.711 174.386 245.711 174.65V176.882C245.711 177.158 245.753 177.338 245.837 177.422C245.933 177.494 246.113 177.53 246.377 177.53H254.387C255.035 177.53 255.587 177.764 256.043 178.232C256.499 178.688 256.727 179.24 256.727 179.888V182.66C256.727 183.308 256.499 183.86 256.043 184.316C255.587 184.772 255.035 185 254.387 185H246.107Z" fill="black"/>
<path d="M35.392 136V118.72H49.312C50.24 118.72 51.032 119.048 51.688 119.704C52.344 120.36 52.672 121.144 52.672 122.056V132.664C52.672 133.576 52.344 134.36 51.688 135.016C51.032 135.672 50.24 136 49.312 136H35.392ZM39.4 132.808H48.64C49.072 132.808 49.32 132.784 49.384 132.736C49.448 132.672 49.48 132.416 49.48 131.968V122.752C49.48 122.304 49.448 122.056 49.384 122.008C49.32 121.944 49.072 121.912 48.64 121.912H39.4C38.952 121.912 38.696 121.944 38.632 122.008C38.584 122.056 38.56 122.304 38.56 122.752V131.968C38.56 132.416 38.584 132.672 38.632 132.736C38.696 132.784 38.952 132.808 39.4 132.808ZM59.1276 136V118.72H75.0396V121.912H62.3196V125.752H72.5436V128.944H62.3196V132.808H75.0396V136H59.1276ZM84.5106 136C83.5986 136 82.8146 135.672 82.1586 135.016C81.5026 134.36 81.1746 133.576 81.1746 132.664V122.056C81.1746 121.144 81.5026 120.36 82.1586 119.704C82.8146 119.048 83.5986 118.72 84.5106 118.72H98.4066V121.912H85.1826C84.7346 121.912 84.4786 121.944 84.4146 122.008C84.3666 122.056 84.3426 122.304 84.3426 122.752V131.968C84.3426 132.416 84.3666 132.672 84.4146 132.736C84.4786 132.784 84.7346 132.808 85.1826 132.808H98.4066V136H84.5106ZM104.653 136V118.696H107.821V132.808H121.933V136H104.653ZM127.1 136V122.056C127.1 121.144 127.428 120.36 128.084 119.704C128.74 119.048 129.524 118.72 130.436 118.72H141.02C141.948 118.72 142.74 119.048 143.396 119.704C144.052 120.36 144.38 121.144 144.38 122.056V136H141.188V130.192H130.268V136H127.1ZM130.268 127.024H141.188V122.752C141.188 122.304 141.156 122.056 141.092 122.008C141.028 121.944 140.78 121.912 140.348 121.912H131.108C130.66 121.912 130.404 121.944 130.34 122.008C130.292 122.056 130.268 122.304 130.268 122.752V127.024ZM150.811 136V118.744H164.731C165.659 118.744 166.451 119.08 167.107 119.752C167.763 120.408 168.091 121.184 168.091 122.08V126.736C168.091 127.648 167.763 128.432 167.107 129.088C166.451 129.744 165.659 130.072 164.731 130.072H163.795L168.067 135.112V136H164.611L159.643 130.072L153.979 130.096V136H150.811ZM154.819 126.88H164.059C164.491 126.88 164.731 126.856 164.779 126.808C164.843 126.76 164.875 126.512 164.875 126.064V122.752C164.875 122.304 164.843 122.056 164.779 122.008C164.731 121.944 164.491 121.912 164.059 121.912H154.819C154.371 121.912 154.115 121.944 154.051 122.008C154.003 122.056 153.979 122.304 153.979 122.752V126.064C153.979 126.512 154.003 126.76 154.051 126.808C154.115 126.856 154.371 126.88 154.819 126.88ZM174.407 136V122.056C174.407 121.144 174.735 120.36 175.391 119.704C176.047 119.048 176.831 118.72 177.743 118.72H188.327C189.255 118.72 190.047 119.048 190.703 119.704C191.359 120.36 191.687 121.144 191.687 122.056V136H188.495V130.192H177.575V136H174.407ZM177.575 127.024H188.495V122.752C188.495 122.304 188.463 122.056 188.399 122.008C188.335 121.944 188.087 121.912 187.655 121.912H178.415C177.967 121.912 177.711 121.944 177.647 122.008C177.599 122.056 177.575 122.304 177.575 122.752V127.024ZM204.334 136V121.912H197.278V118.72H214.558V121.912H207.526V136H204.334ZM219.977 136V118.72H223.121V136H219.977ZM232.214 136C231.302 136 230.518 135.672 229.862 135.016C229.206 134.36 228.878 133.576 228.878 132.664V122.056C228.878 121.144 229.206 120.36 229.862 119.704C230.518 119.048 231.302 118.72 232.214 118.72H242.822C243.734 118.72 244.518 119.048 245.174 119.704C245.83 120.36 246.158 121.144 246.158 122.056V132.664C246.158 133.576 245.83 134.36 245.174 135.016C244.518 135.672 243.734 136 242.822 136H232.214ZM232.886 132.808H242.126C242.558 132.808 242.806 132.784 242.87 132.736C242.934 132.672 242.966 132.416 242.966 131.968V122.752C242.966 122.304 242.934 122.056 242.87 122.008C242.806 121.944 242.558 121.912 242.126 121.912H232.886C232.438 121.912 232.182 121.944 232.118 122.008C232.07 122.056 232.046 122.304 232.046 122.752V131.968C232.046 132.416 232.07 132.672 232.118 132.736C232.182 132.784 232.438 132.808 232.886 132.808ZM252.521 136V118.72H256.001L266.609 131.344V118.72H269.801V136H266.321L255.689 123.352V136H252.521Z" fill="black"/>
<line x1="34" y1="151.5" x2="272" y2="151.5" stroke="black" stroke-width="3"/>
</svg>
