<svg width="200" height="200" viewBox="0 0 200 200" fill="none" xmlns="http://www.w3.org/2000/svg">
<path d="M95.5662 140.706H102.286C102.435 140.706 102.561 140.655 102.664 140.552C102.776 140.44 102.832 140.309 102.832 140.16V133.44C102.832 133.291 102.776 133.165 102.664 133.062C102.561 132.95 102.435 132.894 102.286 132.894H95.5662C95.4168 132.894 95.2862 132.95 95.1742 133.062C95.0715 133.165 95.0202 133.291 95.0202 133.44V140.16C95.0202 140.309 95.0715 140.44 95.1742 140.552C95.2862 140.655 95.4168 140.706 95.5662 140.706Z" fill="black"/>
<path d="M118.07 140.706H124.79C124.939 140.706 125.065 140.655 125.168 140.552C125.28 140.44 125.336 140.309 125.336 140.16V133.44C125.336 133.291 125.28 133.165 125.168 133.062C125.065 132.95 124.939 132.894 124.79 132.894H118.07C117.921 132.894 117.79 132.95 117.678 133.062C117.575 133.165 117.524 133.291 117.524 133.44V140.16C117.524 140.309 117.575 140.44 117.678 140.552C117.79 140.655 117.921 140.706 118.07 140.706Z" fill="black"/>
<path fill-rule="evenodd" clip-rule="evenodd" d="M100 200C155.228 200 200 155.228 200 100C200 44.7715 155.228 0 100 0C44.7715 0 0 44.7715 0 100C0 155.228 44.7715 200 100 200ZM42.5822 110.84V77.792C42.5822 75.392 43.4222 73.352 45.1022 71.672C46.8302 69.944 48.8942 69.08 51.2942 69.08H74.7662V74.984H51.2942C50.5262 74.984 49.8542 75.272 49.2782 75.848C48.7502 76.376 48.4862 77.024 48.4862 77.792V110.84H42.5822ZM79.4259 110.84V77.792C79.4259 75.392 80.2659 73.352 81.9459 71.672C83.6739 69.944 85.7379 69.08 88.1379 69.08H111.61V74.984H88.1379C87.3699 74.984 86.6979 75.272 86.1219 75.848C85.5939 76.376 85.3299 77.024 85.3299 77.792V110.84H79.4259ZM116.27 110.84V59H122.174V110.84H116.27ZM157.228 109.688L128.284 92.984V86L157.228 69.368V76.208L134.188 89.528L157.228 102.848V109.688ZM38.8382 119.84H161.98V123.44H38.8382V119.84ZM41.48 141.84V132.894H37V131.76H47.08V132.894H42.614V141.84H41.48ZM48.155 141.84V131.76H57.3531V132.894H49.289V136.226H55.771V137.374H49.289V140.706H57.3531V141.84H48.155ZM60.5258 141.84C60.0591 141.84 59.6625 141.677 59.3358 141.35C59.0091 141.023 58.8458 140.627 58.8458 140.16V133.44C58.8458 132.973 59.0091 132.577 59.3358 132.25C59.6625 131.923 60.0591 131.76 60.5258 131.76H68.8978V132.894H60.5258C60.3765 132.894 60.2458 132.95 60.1338 133.062C60.0311 133.165 59.9798 133.291 59.9798 133.44V140.16C59.9798 140.309 60.0311 140.44 60.1338 140.552C60.2458 140.655 60.3765 140.706 60.5258 140.706H68.8978V141.84H60.5258ZM70.3715 141.84V131.76H71.5055V136.226H79.5555V131.76H80.7035V141.84H79.5555V137.374H71.5055V141.84H70.3715ZM82.2657 141.84V131.76H83.8197L91.2117 140.552V131.76H92.3457V141.84H90.7917L83.3997 133.048V141.84H82.2657ZM95.5662 141.84C95.0995 141.84 94.7028 141.677 94.3762 141.35C94.0495 141.023 93.8862 140.627 93.8862 140.16V133.44C93.8862 132.973 94.0495 132.577 94.3762 132.25C94.7028 131.923 95.0995 131.76 95.5662 131.76H102.286C102.753 131.76 103.149 131.923 103.476 132.25C103.803 132.577 103.966 132.973 103.966 133.44V140.16C103.966 140.627 103.803 141.023 103.476 141.35C103.149 141.677 102.753 141.84 102.286 141.84H95.5662ZM105.522 141.84V131.746H106.656V140.706H115.602V141.84H105.522ZM118.07 141.84C117.603 141.84 117.207 141.677 116.88 141.35C116.553 141.023 116.39 140.627 116.39 140.16V133.44C116.39 132.973 116.553 132.577 116.88 132.25C117.207 131.923 117.603 131.76 118.07 131.76H124.79C125.257 131.76 125.653 131.923 125.98 132.25C126.307 132.577 126.47 132.973 126.47 133.44V140.16C126.47 140.627 126.307 141.023 125.98 141.35C125.653 141.677 125.257 141.84 124.79 141.84H118.07ZM129.692 141.84C129.225 141.84 128.828 141.677 128.502 141.35C128.175 141.023 128.012 140.627 128.012 140.16V133.44C128.012 132.973 128.175 132.577 128.502 132.25C128.828 131.923 129.225 131.76 129.692 131.76H136.412C136.878 131.76 137.275 131.923 137.602 132.25C137.928 132.577 138.092 132.973 138.092 133.44V133.846H136.958V133.44C136.958 133.291 136.902 133.165 136.79 133.062C136.687 132.95 136.561 132.894 136.412 132.894H129.692C129.542 132.894 129.412 132.95 129.3 133.062C129.197 133.165 129.146 133.291 129.146 133.44V140.16C129.146 140.309 129.197 140.44 129.3 140.552C129.412 140.655 129.542 140.706 129.692 140.706H136.412C136.561 140.706 136.687 140.655 136.79 140.552C136.902 140.44 136.958 140.309 136.958 140.16V137.668H134.466V136.52H138.092V140.16C138.092 140.627 137.928 141.023 137.602 141.35C137.275 141.677 136.878 141.84 136.412 141.84H129.692ZM139.577 141.84V131.76H140.725V141.84H139.577ZM142.655 141.84V131.76H151.853V132.894H143.789V136.226H150.271V137.374H143.789V140.706H151.853V141.84H142.655ZM154.956 141.84C154.489 141.84 154.092 141.677 153.766 141.35C153.439 141.023 153.276 140.627 153.276 140.16V139.768H154.41V140.16C154.41 140.309 154.461 140.44 154.564 140.552C154.676 140.655 154.806 140.706 154.956 140.706H161.676C161.825 140.706 161.951 140.655 162.054 140.552C162.166 140.44 162.222 140.309 162.222 140.16V137.906C162.222 137.757 162.166 137.631 162.054 137.528C161.951 137.425 161.825 137.374 161.676 137.374H154.956C154.489 137.374 154.092 137.211 153.766 136.884C153.439 136.548 153.276 136.151 153.276 135.694V133.44C153.276 132.973 153.439 132.577 153.766 132.25C154.092 131.923 154.489 131.76 154.956 131.76H161.676C162.142 131.76 162.539 131.923 162.866 132.25C163.192 132.577 163.356 132.973 163.356 133.44V133.832H162.222V133.44C162.222 133.291 162.166 133.165 162.054 133.062C161.951 132.95 161.825 132.894 161.676 132.894H154.956C154.806 132.894 154.676 132.95 154.564 133.062C154.461 133.165 154.41 133.291 154.41 133.44V135.694C154.41 135.843 154.461 135.969 154.564 136.072C154.676 136.175 154.806 136.226 154.956 136.226H161.676C162.142 136.226 162.539 136.394 162.866 136.73C163.192 137.057 163.356 137.449 163.356 137.906V140.16C163.356 140.627 163.192 141.023 162.866 141.35C162.539 141.677 162.142 141.84 161.676 141.84H154.956Z" fill="black"/>
</svg>
